Animal-Bold.ufo
<glyph name="exclam" format="2">
	<advance width="230"/>
	<unicode hex="0021"/>
	<outline>
		<contour>
			<point x="115" y="210" type="curve" smooth="yes"/>
			<point x="139" y="210"/>
			<point x="164" y="233"/>
			<point x="165" y="267" type="curve" smooth="yes"/>
			<point x="184" y="690" type="line" smooth="yes"/>
			<point x="186" y="737"/>
			<point x="151" y="760"/>
			<point x="115" y="760" type="curve" smooth="yes"/>
			<point x="80" y="760"/>
			<point x="44" y="737"/>
			<point x="46" y="690" type="curve" smooth="yes"/>
			<point x="65" y="267" type="line" smooth="yes"/>
			<point x="66" y="233"/>
			<point x="90" y="210"/>
		</contour>
		<component base="period" xOffset="12" yOffset="-1"/>
	</outline>
</glyph>
<glyph name="comma" format="2">
	<advance width="210"/>
	<unicode hex="002C"/>
	<outline>
		<contour>
			<point x="94" y="-141" type="curve" smooth="yes"/>
			<point x="148" y="-93"/>
			<point x="181" y="-33"/>
			<point x="181" y="35" type="curve" smooth="yes"/>
			<point x="181" y="103"/>
			<point x="148" y="130"/>
			<point x="105" y="130" type="curve" smooth="yes"/>
			<point x="60" y="130"/>
			<point x="30" y="102"/>
			<point x="30" y="60" type="curve" smooth="yes"/>
			<point x="30" y="18"/>
			<point x="60" y="-10"/>
			<point x="105" y="-10" type="curve" smooth="yes"/>
			<point x="140" y="-10"/>
			<point x="164" y="28"/>
			<point x="164" y="59" type="curve"/>
			<point x="123" y="45" type="line"/>
			<point x="123" y="-24"/>
			<point x="86" y="-60"/>
			<point x="46" y="-98" type="curve" smooth="yes"/>
			<point x="14" y="-130"/>
			<point x="54" y="-177"/>
		</contour>
	</outline>
</glyph>
<glyph name="hyphen" format="2">
	<advance width="415"/>
	<unicode hex="002D"/>
	<outline>
		<contour>
			<point x="96" y="270" type="curve" smooth="yes"/>
			<point x="302" y="270" type="line" smooth="yes"/>
			<point x="342" y="270"/>
			<point x="368" y="292"/>
			<point x="368" y="325" type="curve" smooth="yes"/>
			<point x="368" y="358"/>
			<point x="342" y="380"/>
			<point x="301" y="380" type="curve" smooth="yes"/>
			<point x="97" y="380" type="line" smooth="yes"/>
			<point x="57" y="380"/>
			<point x="30" y="358"/>
			<point x="30" y="325" type="curve" smooth="yes"/>
			<point x="30" y="292"/>
			<point x="57" y="270"/>
		</contour>
	</outline>
</glyph>
<glyph name="A" format="2">
	<advance width="613"/>
	<unicode hex="0041"/>
	<anchor x="306" y="700" name="top"/>
	<outline>
		<contour>
			<point x="77" y="-9" type="curve" smooth="yes"/>
			<point x="109" y="-9"/>
			<point x="129" y="11"/>
			<point x="141" y="52" type="curve" smooth="yes"/>
			<point x="299" y="610" type="line"/>
			<point x="304" y="610" type="line"/>
			<point x="462" y="53" type="line" smooth="yes"/>
			<point x="474" y="11"/>
			<point x="493" y="-9"/>
			<point x="530" y="-9" type="curve" smooth="yes"/>
			<point x="570" y="-9"/>
			<point x="593" y="21"/>
			<point x="578" y="73" type="curve" smooth="yes"/>
			<point x="424" y="611" type="line" smooth="yes"/>
			<point x="404" y="682"/>
			<point x="356" y="710"/>
			<point x="306" y="710" type="curve" smooth="yes"/>
			<point x="257" y="710"/>
			<point x="211" y="684"/>
			<point x="190" y="611" type="curve" smooth="yes"/>
			<point x="35" y="72" type="line" smooth="yes"/>
			<point x="20" y="20"/>
			<point x="40" y="-9"/>
		</contour>
		<contour>
			<point x="156" y="186" type="line"/>
			<point x="453" y="186" type="line"/>
			<point x="425" y="281" type="line"/>
			<point x="186" y="281" type="line"/>
		</contour>
	</outline>
</glyph>
<glyph name="B" format="2">
	<advance width="580"/>
	<unicode hex="0042"/>
	<outline>
		<contour>
			<point x="305" y="-10" type="curve" smooth="yes"/>
			<point x="440" y="-10"/>
			<point x="530" y="62"/>
			<point x="530" y="180" type="curve" smooth="yes"/>
			<point x="530" y="267"/>
			<point x="483" y="340"/>
			<point x="420" y="374" type="curve"/>
			<point x="419" y="337" type="line"/>
			<point x="481" y="382"/>
			<point x="500" y="467"/>
			<point x="500" y="525" type="curve" smooth="yes"/>
			<point x="500" y="640"/>
			<point x="397" y="710"/>
			<point x="253" y="710" type="curve" smooth="yes"/>
			<point x="123" y="710"/>
			<point x="70" y="675"/>
			<point x="70" y="610" type="curve" smooth="yes"/>
			<point x="70" y="66" type="line" smooth="yes"/>
			<point x="70" y="28"/>
			<point x="97" y="-2"/>
			<point x="135" y="-4" type="curve" smooth="yes"/>
			<point x="191" y="-7"/>
			<point x="256" y="-10"/>
		</contour>
		<contour>
			<point x="305" y="90" type="curve" smooth="yes"/>
			<point x="272" y="90"/>
			<point x="232" y="91"/>
			<point x="190" y="95" type="curve"/>
			<point x="190" y="602" type="line"/>
			<point x="210" y="604"/>
			<point x="229" y="605"/>
			<point x="248" y="605" type="curve" smooth="yes"/>
			<point x="352" y="605"/>
			<point x="390" y="553"/>
			<point x="390" y="501" type="curve" smooth="yes"/>
			<point x="390" y="452"/>
			<point x="369" y="409"/>
			<point x="307" y="394" type="curve" smooth="yes"/>
			<point x="269" y="385"/>
			<point x="258" y="372"/>
			<point x="258" y="347" type="curve" smooth="yes"/>
			<point x="258" y="312"/>
			<point x="278" y="304"/>
			<point x="309" y="304" type="curve" smooth="yes"/>
			<point x="382" y="304"/>
			<point x="410" y="260"/>
			<point x="410" y="200" type="curve" smooth="yes"/>
			<point x="410" y="126"/>
			<point x="368" y="90"/>
		</contour>
	</outline>
</glyph>
<glyph name="E" format="2">
	<advance width="442"/>
	<unicode hex="0045"/>
	<anchor x="239" y="700" name="top"/>
	<outline>
		<contour>
			<point x="129" y="0" type="curve" smooth="yes"/>
			<point x="388" y="0" type="line" smooth="yes"/>
			<point x="423" y="0"/>
			<point x="447" y="20"/>
			<point x="447" y="50" type="curve" smooth="yes"/>
			<point x="447" y="79"/>
			<point x="423" y="100"/>
			<point x="387" y="100" type="curve" smooth="yes"/>
			<point x="131" y="100" type="line"/>
			<point x="190" y="63" type="line"/>
			<point x="190" y="639" type="line"/>
			<point x="131" y="600" type="line"/>
			<point x="388" y="600" type="line" smooth="yes"/>
			<point x="423" y="600"/>
			<point x="447" y="620"/>
			<point x="447" y="650" type="curve" smooth="yes"/>
			<point x="447" y="680"/>
			<point x="423" y="700"/>
			<point x="387" y="700" type="curve" smooth="yes"/>
			<point x="130" y="700" type="line" smooth="yes"/>
			<point x="94" y="700"/>
			<point x="70" y="672"/>
			<point x="70" y="630" type="curve"/>
			<point x="70" y="70" type="line" smooth="yes"/>
			<point x="70" y="28"/>
			<point x="94" y="0"/>
		</contour>
		<contour>
			<point x="107" y="291" type="line"/>
			<point x="328" y="291" type="line" smooth="yes"/>
			<point x="363" y="291"/>
			<point x="387" y="311"/>
			<point x="387" y="341" type="curve" smooth="yes"/>
			<point x="387" y="371"/>
			<point x="363" y="391"/>
			<point x="327" y="391" type="curve" smooth="yes"/>
			<point x="107" y="391" type="line"/>
		</contour>
	</outline>
</glyph>
<glyph name="G" format="2">
	<advance width="557"/>
	<unicode hex="0047"/>
	<outline>
		<contour>
			<point x="320" y="-10" type="curve" smooth="yes"/>
			<point x="444" y="-10"/>
			<point x="525" y="56"/>
			<point x="525" y="155" type="curve" smooth="yes"/>
			<point x="525" y="267" type="line" smooth="yes"/>
			<point x="525" y="302"/>
			<point x="503" y="325"/>
			<point x="470" y="325" type="curve" smooth="yes"/>
			<point x="348" y="325" type="line" smooth="yes"/>
			<point x="312" y="325"/>
			<point x="288" y="305"/>
			<point x="288" y="275" type="curve" smooth="yes"/>
			<point x="288" y="245"/>
			<point x="312" y="225"/>
			<point x="347" y="225" type="curve" smooth="yes"/>
			<point x="470" y="225" type="line"/>
			<point x="415" y="267" type="line"/>
			<point x="415" y="154" type="line" smooth="yes"/>
			<point x="415" y="115"/>
			<point x="378" y="90"/>
			<point x="320" y="90" type="curve" smooth="yes"/>
			<point x="210" y="90"/>
			<point x="185" y="194"/>
			<point x="185" y="350" type="curve" smooth="yes"/>
			<point x="185" y="558"/>
			<point x="235" y="610"/>
			<point x="320" y="610" type="curve" smooth="yes"/>
			<point x="383" y="610"/>
			<point x="419" y="577"/>
			<point x="419" y="527" type="curve"/>
			<point x="449" y="558" type="line"/>
			<point x="413" y="558"/>
			<point x="389" y="538"/>
			<point x="389" y="507" type="curve" smooth="yes"/>
			<point x="389" y="472"/>
			<point x="415" y="449"/>
			<point x="454" y="449" type="curve" smooth="yes"/>
			<point x="493" y="449"/>
			<point x="519" y="480"/>
			<point x="519" y="527" type="curve" smooth="yes"/>
			<point x="519" y="637"/>
			<point x="443" y="710"/>
			<point x="320" y="710" type="curve" smooth="yes"/>
			<point x="114" y="710"/>
			<point x="65" y="566"/>
			<point x="65" y="350" type="curve" smooth="yes"/>
			<point x="65" y="62"/>
			<point x="163" y="-10"/>
		</contour>
	</outline>
</glyph>
<glyph name="H" format="2">
	<advance width="586"/>
	<unicode hex="0048"/>
	<outline>
		<contour>
			<point x="455" y="-10" type="curve" smooth="yes"/>
			<point x="492" y="-10"/>
			<point x="516" y="18"/>
			<point x="516" y="60" type="curve" smooth="yes"/>
			<point x="516" y="640" type="line" smooth="yes"/>
			<point x="516" y="682"/>
			<point x="491" y="710"/>
			<point x="456" y="710" type="curve" smooth="yes"/>
			<point x="420" y="710"/>
			<point x="396" y="682"/>
			<point x="396" y="640" type="curve" smooth="yes"/>
			<point x="396" y="60" type="line" smooth="yes"/>
			<point x="396" y="18"/>
			<point x="420" y="-10"/>
		</contour>
		<contour>
			<point x="129" y="-10" type="curve" smooth="yes"/>
			<point x="165" y="-10"/>
			<point x="190" y="18"/>
			<point x="190" y="60" type="curve" smooth="yes"/>
			<point x="190" y="640" type="line" smooth="yes"/>
			<point x="190" y="682"/>
			<point x="165" y="710"/>
			<point x="130" y="710" type="curve" smooth="yes"/>
			<point x="94" y="710"/>
			<point x="70" y="682"/>
			<point x="70" y="640" type="curve" smooth="yes"/>
			<point x="70" y="60" type="line" smooth="yes"/>
			<point x="70" y="18"/>
			<point x="94" y="-10"/>
		</contour>
		<contour>
			<point x="154" y="292" type="line"/>
			<point x="412" y="292" type="line"/>
			<point x="412" y="395" type="line"/>
			<point x="154" y="395" type="line"/>
		</contour>
	</outline>
</glyph>
<glyph name="L" format="2">
	<advance width="442"/>
	<unicode hex="004C"/>
	<outline>
		<contour>
			<point x="130" y="0" type="curve" smooth="yes"/>
			<point x="362" y="0" type="line" smooth="yes"/>
			<point x="398" y="0"/>
			<point x="422" y="22"/>
			<point x="422" y="55" type="curve" smooth="yes"/>
			<point x="422" y="88"/>
			<point x="398" y="110"/>
			<point x="363" y="110" type="curve" smooth="yes"/>
			<point x="131" y="110" type="line"/>
			<point x="190" y="61" type="line"/>
			<point x="190" y="640" type="line" smooth="yes"/>
			<point x="190" y="682"/>
			<point x="165" y="710"/>
			<point x="129" y="710" type="curve" smooth="yes"/>
			<point x="94" y="710"/>
			<point x="70" y="682"/>
			<point x="70" y="640" type="curve" smooth="yes"/>
			<point x="70" y="70" type="line" smooth="yes"/>
			<point x="70" y="28"/>
			<point x="94" y="0"/>
		</contour>
	</outline>
</glyph>
<glyph name="M" format="2">
	<advance width="779"/>
	<unicode hex="004D"/>
	<outline>
		<contour>
			<point x="65" y="59" type="line" smooth="yes"/>
			<point x="63" y="14"/>
			<point x="90" y="-10"/>
			<point x="118" y="-10" type="curve" smooth="yes"/>
			<point x="145" y="-10"/>
			<point x="173" y="13"/>
			<point x="175" y="53" type="curve" smooth="yes"/>
			<point x="199" y="617" type="line"/>
			<point x="206" y="617" type="line"/>
			<point x="297" y="217" type="line" smooth="yes"/>
			<point x="309" y="163"/>
			<point x="346" y="136"/>
			<point x="382" y="136" type="curve" smooth="yes"/>
			<point x="419" y="136"/>
			<point x="456" y="164"/>
			<point x="468" y="217" type="curve" smooth="yes"/>
			<point x="561" y="617" type="line"/>
			<point x="568" y="617" type="line"/>
			<point x="602" y="53" type="line" smooth="yes"/>
			<point x="604" y="12"/>
			<point x="633" y="-10"/>
			<point x="661" y="-10" type="curve" smooth="yes"/>
			<point x="689" y="-10"/>
			<point x="717" y="13"/>
			<point x="714" y="59" type="curve" smooth="yes"/>
			<point x="678" y="603" type="line" smooth="yes"/>
			<point x="673" y="674"/>
			<point x="620" y="710"/>
			<point x="565" y="710" type="curve" smooth="yes"/>
			<point x="510" y="710"/>
			<point x="457" y="674"/>
			<point x="446" y="603" type="curve" smooth="yes"/>
			<point x="393" y="255" type="line"/>
			<point x="381" y="255" type="line"/>
			<point x="316" y="603" type="line" smooth="yes"/>
			<point x="302" y="675"/>
			<point x="249" y="709"/>
			<point x="198" y="709" type="curve" smooth="yes"/>
			<point x="145" y="709"/>
			<point x="94" y="673"/>
			<point x="91" y="603" type="curve" smooth="yes"/>
		</contour>
	</outline>
</glyph>
<glyph name="O" format="2">
	<advance width="610"/>
	<unicode hex="004F"/>
	<anchor x="305" y="700" name="top"/>
	<outline>
		<contour>
			<point x="305" y="-10" type="curve" smooth="yes"/>
			<point x="457" y="-10"/>
			<point x="545" y="84"/>
			<point x="545" y="351" type="curve" smooth="yes"/>
			<point x="545" y="616"/>
			<point x="457" y="710"/>
			<point x="305" y="710" type="curve" smooth="yes"/>
			<point x="153" y="710"/>
			<point x="65" y="616"/>
			<point x="65" y="351" type="curve" smooth="yes"/>
			<point x="65" y="84"/>
			<point x="153" y="-10"/>
		</contour>
		<contour>
			<point x="305" y="90" type="curve" smooth="yes"/>
			<point x="227" y="90"/>
			<point x="185" y="141"/>
			<point x="185" y="351" type="curve" smooth="yes"/>
			<point x="185" y="559"/>
			<point x="227" y="610"/>
			<point x="305" y="610" type="curve" smooth="yes"/>
			<point x="383" y="610"/>
			<point x="425" y="559"/>
			<point x="425" y="351" type="curve" smooth="yes"/>
			<point x="425" y="141"/>
			<point x="383" y="90"/>
		</contour>
	</outline>
</glyph>
<glyph name="X" format="2">
	<advance width="561"/>
	<unicode hex="0058"/>
	<outline>
		<contour>
			<point x="472" y="-11" type="curve" smooth="yes"/>
			<point x="516" y="-11"/>
			<point x="542" y="35"/>
			<point x="515" y="79" type="curve" smooth="yes"/>
			<point x="176" y="670" type="line" smooth="yes"/>
			<point x="160" y="698"/>
			<point x="137" y="709"/>
			<point x="115" y="709" type="curve" smooth="yes"/>
			<point x="73" y="709"/>
			<point x="43" y="669"/>
			<point x="64" y="635" type="curve" smooth="yes"/>
			<point x="404" y="35" type="line" smooth="yes"/>
			<point x="423" y="2"/>
			<point x="448" y="-11"/>
		</contour>
		<contour>
			<point x="75" y="-11" type="curve" smooth="yes"/>
			<point x="94" y="-11"/>
			<point x="112" y="1"/>
			<point x="128" y="28" type="curve" smooth="yes"/>
			<point x="355" y="399" type="line"/>
			<point x="242" y="399" type="line"/>
			<point x="30" y="61" type="line" smooth="yes"/>
			<point x="9" y="28"/>
			<point x="38" y="-11"/>
		</contour>
		<contour>
			<point x="205" y="316" type="line"/>
			<point x="315" y="316" type="line"/>
			<point x="505" y="635" type="line" smooth="yes"/>
			<point x="527" y="672"/>
			<point x="506" y="710"/>
			<point x="468" y="710" type="curve" smooth="yes"/>
			<point x="448" y="710"/>
			<point x="431" y="698"/>
			<point x="416" y="672" type="curve" smooth="yes"/>
		</contour>
	</outline>
</glyph>
<glyph name="a" format="2">
	<advance width="520"/>
	<unicode hex="0061"/>
	<anchor x="277" y="500" name="top"/>
	<outline>
		<contour>
			<point x="410" y="-11" type="curve" smooth="yes"/>
			<point x="445" y="-11"/>
			<point x="465" y="13"/>
			<point x="465" y="49" type="curve"/>
			<point x="465" y="320" type="line" smooth="yes"/>
			<point x="465" y="450"/>
			<point x="387" y="510"/>
			<point x="270" y="510" type="curve" smooth="yes"/>
			<point x="120" y="510"/>
			<point x="76" y="436"/>
			<point x="76" y="382" type="curve" smooth="yes"/>
			<point x="76" y="338"/>
			<point x="97" y="317"/>
			<point x="130" y="317" type="curve" smooth="yes"/>
			<point x="165" y="317"/>
			<point x="186" y="337"/>
			<point x="186" y="370" type="curve" smooth="yes"/>
			<point x="186" y="399"/>
			<point x="154" y="425"/>
			<point x="124" y="425" type="curve"/>
			<point x="121" y="357" type="line"/>
			<point x="149" y="401"/>
			<point x="195" y="424"/>
			<point x="246" y="424" type="curve" smooth="yes"/>
			<point x="324" y="424"/>
			<point x="355" y="382"/>
			<point x="355" y="308" type="curve" smooth="yes"/>
			<point x="355" y="168" type="line" smooth="yes"/>
			<point x="355" y="112"/>
			<point x="319" y="80"/>
			<point x="265" y="80" type="curve" smooth="yes"/>
			<point x="204" y="80"/>
			<point x="170" y="106"/>
			<point x="170" y="145" type="curve" smooth="yes"/>
			<point x="170" y="195"/>
			<point x="218" y="215"/>
			<point x="282" y="215" type="curve" smooth="yes"/>
			<point x="307" y="215"/>
			<point x="334" y="212"/>
			<point x="362" y="206" type="curve"/>
			<point x="367" y="269" type="line"/>
			<point x="329" y="278"/>
			<point x="291" y="282"/>
			<point x="255" y="282" type="curve" smooth="yes"/>
			<point x="145" y="282"/>
			<point x="55" y="239"/>
			<point x="55" y="135" type="curve" smooth="yes"/>
			<point x="55" y="42"/>
			<point x="116" y="-10"/>
			<point x="208" y="-10" type="curve" smooth="yes"/>
			<point x="278" y="-10"/>
			<point x="327" y="22"/>
			<point x="353" y="75" type="curve"/>
			<point x="355" y="75" type="line"/>
			<point x="355" y="49" type="line" smooth="yes"/>
			<point x="355" y="11"/>
			<point x="377" y="-11"/>
		</contour>
	</outline>
</glyph>
<glyph name="b" format="2">
	<advance width="526"/>
	<unicode hex="0062"/>
	<outline>
		<contour>
			<point x="240" y="-10" type="curve" smooth="yes"/>
			<point x="382" y="-10"/>
			<point x="476" y="105"/>
			<point x="476" y="265" type="curve" smooth="yes"/>
			<point x="476" y="405"/>
			<point x="418" y="510"/>
			<point x="293" y="510" type="curve" smooth="yes"/>
			<point x="242" y="510"/>
			<point x="194" y="486"/>
			<point x="175" y="434" type="curve"/>
			<point x="170" y="434" type="line"/>
			<point x="170" y="700" type="line" smooth="yes"/>
			<point x="170" y="733"/>
			<point x="148" y="760"/>
			<point x="115" y="760" type="curve" smooth="yes"/>
			<point x="82" y="760"/>
			<point x="60" y="733"/>
			<point x="60" y="700" type="curve" smooth="yes"/>
			<point x="60" y="83" type="line" smooth="yes"/>
			<point x="60" y="66"/>
			<point x="68" y="50"/>
			<point x="83" y="40" type="curve" smooth="yes"/>
			<point x="131" y="9"/>
			<point x="189" y="-10"/>
		</contour>
		<contour>
			<point x="245" y="80" type="curve" smooth="yes"/>
			<point x="223" y="80"/>
			<point x="197" y="86"/>
			<point x="170" y="106" type="curve"/>
			<point x="170" y="320" type="line" smooth="yes"/>
			<point x="170" y="377"/>
			<point x="202" y="420"/>
			<point x="259" y="420" type="curve" smooth="yes"/>
			<point x="341" y="420"/>
			<point x="361" y="355"/>
			<point x="361" y="255" type="curve" smooth="yes"/>
			<point x="361" y="155"/>
			<point x="316" y="80"/>
		</contour>
	</outline>
</glyph>
<glyph name="d" format="2">
	<advance width="521"/>
	<unicode hex="0064"/>
	<outline>
		<contour>
			<point x="55" y="251" type="curve" smooth="yes"/>
			<point x="55" y="111"/>
			<point x="115" y="-10"/>
			<point x="240" y="-10" type="curve" smooth="yes"/>
			<point x="304" y="-10"/>
			<point x="339" y="34"/>
			<point x="351" y="65" type="curve"/>
			<point x="357" y="65" type="line"/>
			<point x="357" y="51" type="line" smooth="yes"/>
			<point x="357" y="11"/>
			<point x="386" y="-10"/>
			<point x="414" y="-10" type="curve" smooth="yes"/>
			<point x="440" y="-10"/>
			<point x="466" y="9"/>
			<point x="466" y="49" type="curve" smooth="yes"/>
			<point x="466" y="700" type="line" smooth="yes"/>
			<point x="466" y="736"/>
			<point x="444" y="760"/>
			<point x="411" y="760" type="curve" smooth="yes"/>
			<point x="378" y="760"/>
			<point x="356" y="736"/>
			<point x="356" y="700" type="curve" smooth="yes"/>
			<point x="356" y="444" type="line"/>
			<point x="350" y="444" type="line"/>
			<point x="340" y="482"/>
			<point x="301" y="510"/>
			<point x="245" y="510" type="curve" smooth="yes"/>
			<point x="123" y="510"/>
			<point x="55" y="406"/>
		</contour>
		<contour>
			<point x="170" y="255" type="curve" smooth="yes"/>
			<point x="170" y="354"/>
			<point x="205" y="420"/>
			<point x="274" y="420" type="curve" smooth="yes"/>
			<point x="312" y="420"/>
			<point x="356" y="406"/>
			<point x="356" y="328" type="curve" smooth="yes"/>
			<point x="356" y="168" type="line" smooth="yes"/>
			<point x="356" y="115"/>
			<point x="315" y="80"/>
			<point x="261" y="80" type="curve" smooth="yes"/>
			<point x="203" y="80"/>
			<point x="170" y="150"/>
		</contour>
	</outline>
</glyph>
<glyph name="h" format="2">
	<advance width="525"/>
	<unicode hex="0068"/>
	<outline>
		<contour>
			<point x="115" y="-10" type="curve" smooth="yes"/>
			<point x="148" y="-10"/>
			<point x="170" y="14"/>
			<point x="170" y="50" type="curve" smooth="yes"/>
			<point x="170" y="319" type="line" smooth="yes"/>
			<point x="170" y="385"/>
			<point x="206" y="419"/>
			<point x="260" y="419" type="curve" smooth="yes"/>
			<point x="318" y="419"/>
			<point x="356" y="381"/>
			<point x="356" y="324" type="curve" smooth="yes"/>
			<point x="356" y="50" type="line" smooth="yes"/>
			<point x="356" y="14"/>
			<point x="379" y="-10"/>
			<point x="413" y="-10" type="curve" smooth="yes"/>
			<point x="447" y="-10"/>
			<point x="470" y="14"/>
			<point x="470" y="50" type="curve" smooth="yes"/>
			<point x="470" y="331" type="line" smooth="yes"/>
			<point x="470" y="438"/>
			<point x="405" y="509"/>
			<point x="307" y="509" type="curve" smooth="yes"/>
			<point x="248" y="509"/>
			<point x="201" y="483"/>
			<point x="173" y="439" type="curve"/>
			<point x="170" y="439" type="line"/>
			<point x="170" y="700" type="line" smooth="yes"/>
			<point x="170" y="736"/>
			<point x="148" y="760"/>
			<point x="115" y="760" type="curve" smooth="yes"/>
			<point x="82" y="760"/>
			<point x="60" y="736"/>
			<point x="60" y="700" type="curve" smooth="yes"/>
			<point x="60" y="50" type="line" smooth="yes"/>
			<point x="60" y="14"/>
			<point x="82" y="-10"/>
		</contour>
	</outline>
</glyph>
<glyph name="i" format="2">
	<advance width="257"/>
	<unicode hex="0069"/>
	<outline>
		<contour>
			<point x="129" y="-11" type="curve" smooth="yes"/>
			<point x="162" y="-11"/>
			<point x="184" y="16"/>
			<point x="184" y="49" type="curve" smooth="yes"/>
			<point x="184" y="450" type="line" smooth="yes"/>
			<point x="184" y="483"/>
			<point x="162" y="510"/>
			<point x="129" y="510" type="curve" smooth="yes"/>
			<point x="96" y="510"/>
			<point x="74" y="483"/>
			<point x="74" y="450" type="curve" smooth="yes"/>
			<point x="74" y="49" type="line" smooth="yes"/>
			<point x="74" y="16"/>
			<point x="96" y="-11"/>
		</contour>
		<contour>
			<point x="128" y="573" type="curve" smooth="yes"/>
			<point x="169" y="573"/>
			<point x="196" y="601"/>
			<point x="196" y="643" type="curve" smooth="yes"/>
			<point x="196" y="683"/>
			<point x="169" y="709"/>
			<point x="128" y="709" type="curve" smooth="yes"/>
			<point x="88" y="709"/>
			<point x="61" y="682"/>
			<point x="61" y="642" type="curve" smooth="yes"/>
			<point x="61" y="601"/>
			<point x="88" y="573"/>
		</contour>
	</outline>
</glyph>
<glyph name="j" format="2">
	<advance width="284"/>
	<unicode hex="006A"/>
	<outline>
		<contour>
			<point x="89" y="-210" type="curve" smooth="yes"/>
			<point x="168" y="-210"/>
			<point x="220" y="-151"/>
			<point x="220" y="-62" type="curve" smooth="yes"/>
			<point x="220" y="450" type="line" smooth="yes"/>
			<point x="220" y="486"/>
			<point x="198" y="510"/>
			<point x="165" y="510" type="curve" smooth="yes"/>
			<point x="132" y="510"/>
			<point x="110" y="486"/>
			<point x="110" y="450" type="curve" smooth="yes"/>
			<point x="110" y="-66" type="line" smooth="yes"/>
			<point x="110" y="-103"/>
			<point x="98" y="-128"/>
			<point x="81" y="-128" type="curve" smooth="yes"/>
			<point x="62" y="-128"/>
			<point x="50" y="-102"/>
			<point x="50" y="-68" type="curve"/>
			<point x="20" y="-158" type="line"/>
			<point x="56" y="-158"/>
			<point x="80" y="-142"/>
			<point x="80" y="-117" type="curve" smooth="yes"/>
			<point x="80" y="-82"/>
			<point x="58" y="-59"/>
			<point x="25" y="-59" type="curve" smooth="yes"/>
			<point x="-8" y="-59"/>
			<point x="-30" y="-82"/>
			<point x="-30" y="-117" type="curve" smooth="yes"/>
			<point x="-30" y="-173"/>
			<point x="18" y="-210"/>
		</contour>
		<contour>
			<point x="165" y="573" type="curve" smooth="yes"/>
			<point x="206" y="573"/>
			<point x="233" y="601"/>
			<point x="233" y="643" type="curve" smooth="yes"/>
			<point x="233" y="683"/>
			<point x="206" y="709"/>
			<point x="165" y="709" type="curve" smooth="yes"/>
			<point x="125" y="709"/>
			<point x="98" y="682"/>
			<point x="98" y="642" type="curve" smooth="yes"/>
			<point x="98" y="601"/>
			<point x="125" y="573"/>
		</contour>
	</outline>
</glyph>
<glyph name="m" format="2">
	<advance width="826"/>
	<unicode hex="006D"/>
	<outline>
		<contour>
			<point x="116" y="-10" type="curve" smooth="yes"/>
			<point x="149" y="-10"/>
			<point x="171" y="14"/>
			<point x="171" y="50" type="curve" smooth="yes"/>
			<point x="171" y="331" type="line"/>
			<point x="171" y="384"/>
			<point x="207" y="419"/>
			<point x="261" y="419" type="curve" smooth="yes"/>
			<point x="319" y="419"/>
			<point x="357" y="381"/>
			<point x="357" y="324" type="curve" smooth="yes"/>
			<point x="357" y="50" type="line" smooth="yes"/>
			<point x="357" y="14"/>
			<point x="380" y="-10"/>
			<point x="414" y="-10" type="curve" smooth="yes"/>
			<point x="448" y="-10"/>
			<point x="471" y="14"/>
			<point x="471" y="50" type="curve" smooth="yes"/>
			<point x="471" y="331" type="line" smooth="yes"/>
			<point x="471" y="438"/>
			<point x="406" y="509"/>
			<point x="308" y="509" type="curve" smooth="yes"/>
			<point x="246" y="509"/>
			<point x="197" y="480"/>
			<point x="170" y="432" type="curve"/>
			<point x="168" y="433" type="line"/>
			<point x="171" y="447" type="line"/>
			<point x="171" y="450" type="line" smooth="yes"/>
			<point x="171" y="486"/>
			<point x="149" y="510"/>
			<point x="116" y="510" type="curve" smooth="yes"/>
			<point x="83" y="510"/>
			<point x="61" y="486"/>
			<point x="61" y="450" type="curve"/>
			<point x="61" y="50" type="line" smooth="yes"/>
			<point x="61" y="14"/>
			<point x="83" y="-10"/>
		</contour>
		<contour>
			<point x="714" y="-10" type="curve" smooth="yes"/>
			<point x="748" y="-10"/>
			<point x="771" y="14"/>
			<point x="771" y="50" type="curve" smooth="yes"/>
			<point x="771" y="331" type="line" smooth="yes"/>
			<point x="771" y="438"/>
			<point x="706" y="509"/>
			<point x="608" y="509" type="curve" smooth="yes"/>
			<point x="510" y="509"/>
			<point x="445" y="438"/>
			<point x="445" y="331" type="curve"/>
			<point x="471" y="331" type="line"/>
			<point x="471" y="384"/>
			<point x="507" y="419"/>
			<point x="561" y="419" type="curve" smooth="yes"/>
			<point x="619" y="419"/>
			<point x="657" y="381"/>
			<point x="657" y="324" type="curve" smooth="yes"/>
			<point x="657" y="50" type="line" smooth="yes"/>
			<point x="657" y="14"/>
			<point x="680" y="-10"/>
		</contour>
	</outline>
</glyph>
<glyph name="n" format="2">
	<advance width="526"/>
	<unicode hex="006E"/>
	<anchor x="266" y="500" name="top"/>
	<outline>
		<contour>
			<point x="116" y="-10" type="curve" smooth="yes"/>
			<point x="149" y="-10"/>
			<point x="171" y="14"/>
			<point x="171" y="50" type="curve" smooth="yes"/>
			<point x="171" y="331" type="line" smooth="yes"/>
			<point x="171" y="384"/>
			<point x="207" y="419"/>
			<point x="261" y="419" type="curve" smooth="yes"/>
			<point x="319" y="419"/>
			<point x="357" y="381"/>
			<point x="357" y="324" type="curve" smooth="yes"/>
			<point x="357" y="50" type="line" smooth="yes"/>
			<point x="357" y="14"/>
			<point x="380" y="-10"/>
			<point x="414" y="-10" type="curve" smooth="yes"/>
			<point x="448" y="-10"/>
			<point x="471" y="14"/>
			<point x="471" y="50" type="curve" smooth="yes"/>
			<point x="471" y="331" type="line" smooth="yes"/>
			<point x="471" y="438"/>
			<point x="406" y="509"/>
			<point x="308" y="509" type="curve" smooth="yes"/>
			<point x="249" y="509"/>
			<point x="201" y="480"/>
			<point x="173" y="437" type="curve"/>
			<point x="171" y="437" type="line"/>
			<point x="171" y="450" type="line" smooth="yes"/>
			<point x="171" y="486"/>
			<point x="149" y="510"/>
			<point x="116" y="510" type="curve" smooth="yes"/>
			<point x="83" y="510"/>
			<point x="61" y="486"/>
			<point x="61" y="450" type="curve" smooth="yes"/>
			<point x="61" y="50" type="line" smooth="yes"/>
			<point x="61" y="14"/>
			<point x="83" y="-10"/>
		</contour>
	</outline>
</glyph>
<glyph name="p" format="2">
	<advance width="527"/>
	<unicode hex="0070"/>
	<outline>
		<contour>
			<point x="116" y="-215" type="curve" smooth="yes"/>
			<point x="149" y="-215"/>
			<point x="171" y="-191"/>
			<point x="171" y="-155" type="curve" smooth="yes"/>
			<point x="171" y="56" type="line"/>
			<point x="176" y="56" type="line"/>
			<point x="185" y="18"/>
			<point x="218" y="-10"/>
			<point x="280" y="-10" type="curve" smooth="yes"/>
			<point x="408" y="-10"/>
			<point x="472" y="98"/>
			<point x="472" y="253" type="curve" smooth="yes"/>
			<point x="472" y="393"/>
			<point x="434" y="510"/>
			<point x="300" y="510" type="curve" smooth="yes"/>
			<point x="229" y="510"/>
			<point x="194" y="471"/>
			<point x="177" y="435" type="curve"/>
			<point x="170" y="435" type="line"/>
			<point x="170" y="449" type="line" smooth="yes"/>
			<point x="170" y="489"/>
			<point x="144" y="510"/>
			<point x="116" y="510" type="curve" smooth="yes"/>
			<point x="90" y="510"/>
			<point x="61" y="491"/>
			<point x="61" y="451" type="curve" smooth="yes"/>
			<point x="61" y="-155" type="line" smooth="yes"/>
			<point x="61" y="-191"/>
			<point x="83" y="-215"/>
		</contour>
		<contour>
			<point x="257" y="80" type="curve" smooth="yes"/>
			<point x="202" y="80"/>
			<point x="172" y="100"/>
			<point x="172" y="153" type="curve" smooth="yes"/>
			<point x="172" y="323" type="line" smooth="yes"/>
			<point x="172" y="376"/>
			<point x="197" y="420"/>
			<point x="264" y="420" type="curve" smooth="yes"/>
			<point x="336" y="420"/>
			<point x="357" y="350"/>
			<point x="357" y="245" type="curve" smooth="yes"/>
			<point x="357" y="146"/>
			<point x="324" y="80"/>
		</contour>
	</outline>
</glyph>
<glyph name="q" format="2">
	<advance width="521"/>
	<unicode hex="0071"/>
	<outline>
		<contour>
			<point x="411" y="-210" type="curve" smooth="yes"/>
			<point x="444" y="-210"/>
			<point x="466" y="-183"/>
			<point x="466" y="-150" type="curve" smooth="yes"/>
			<point x="466" y="443" type="line"/>
			<point x="413" y="482"/>
			<point x="351" y="509"/>
			<point x="276" y="509" type="curve" smooth="yes"/>
			<point x="134" y="509"/>
			<point x="55" y="399"/>
			<point x="55" y="239" type="curve" smooth="yes"/>
			<point x="55" y="99"/>
			<point x="118" y="-11"/>
			<point x="233" y="-11" type="curve" smooth="yes"/>
			<point x="284" y="-11"/>
			<point x="332" y="13"/>
			<point x="351" y="65" type="curve"/>
			<point x="356" y="65" type="line"/>
			<point x="356" y="-150" type="line" smooth="yes"/>
			<point x="356" y="-183"/>
			<point x="378" y="-210"/>
		</contour>
		<contour>
			<point x="267" y="80" type="curve" smooth="yes"/>
			<point x="205" y="80"/>
			<point x="170" y="150"/>
			<point x="170" y="250" type="curve" smooth="yes"/>
			<point x="170" y="353"/>
			<point x="218" y="417"/>
			<point x="285" y="417" type="curve" smooth="yes"/>
			<point x="307" y="417"/>
			<point x="331" y="409"/>
			<point x="356" y="394" type="curve"/>
			<point x="356" y="166" type="line" smooth="yes"/>
			<point x="356" y="119"/>
			<point x="324" y="80"/>
		</contour>
	</outline>
</glyph>
<glyph name="r" format="2">
	<advance width="354"/>
	<unicode hex="0072"/>
	<outline>
		<contour>
			<point x="116" y="-10" type="curve" smooth="yes"/>
			<point x="149" y="-10"/>
			<point x="171" y="14"/>
			<point x="171" y="50" type="curve" smooth="yes"/>
			<point x="171" y="301" type="line"/>
			<point x="171" y="354"/>
			<point x="190" y="389"/>
			<point x="288" y="389" type="curve" smooth="yes"/>
			<point x="334" y="389"/>
			<point x="364" y="413"/>
			<point x="364" y="449" type="curve" smooth="yes"/>
			<point x="364" y="485"/>
			<point x="334" y="509"/>
			<point x="288" y="509" type="curve" smooth="yes"/>
			<point x="232" y="509"/>
			<point x="196" y="479"/>
			<point x="173" y="431" type="curve"/>
			<point x="171" y="431" type="line"/>
			<point x="171" y="450" type="line"/>
			<point x="171" y="486"/>
			<point x="149" y="510"/>
			<point x="116" y="510" type="curve" smooth="yes"/>
			<point x="83" y="510"/>
			<point x="61" y="486"/>
			<point x="61" y="450" type="curve"/>
			<point x="61" y="50" type="line" smooth="yes"/>
			<point x="61" y="14"/>
			<point x="83" y="-10"/>
		</contour>
	</outline>
</glyph>
<glyph name="s" format="2">
	<advance width="474"/>
	<unicode hex="0073"/>
	<outline>
		<contour>
			<point x="243" y="-10" type="curve" smooth="yes"/>
			<point x="358" y="-10"/>
			<point x="434" y="46"/>
			<point x="434" y="134" type="curve" smooth="yes"/>
			<point x="434" y="287"/>
			<point x="169" y="263"/>
			<point x="169" y="359" type="curve" smooth="yes"/>
			<point x="169" y="399"/>
			<point x="214" y="421"/>
			<point x="260" y="421" type="curve" smooth="yes"/>
			<point x="303" y="421"/>
			<point x="358" y="403"/>
			<point x="361" y="366" type="curve"/>
			<point x="365" y="404" type="line"/>
			<point x="335" y="404"/>
			<point x="318" y="386"/>
			<point x="318" y="356" type="curve" smooth="yes"/>
			<point x="318" y="332"/>
			<point x="334" y="309"/>
			<point x="371" y="309" type="curve" smooth="yes"/>
			<point x="401" y="309"/>
			<point x="429" y="335"/>
			<point x="429" y="380" type="curve" smooth="yes"/>
			<point x="429" y="437"/>
			<point x="386" y="510"/>
			<point x="247" y="510" type="curve" smooth="yes"/>
			<point x="139" y="510"/>
			<point x="55" y="447"/>
			<point x="55" y="359" type="curve" smooth="yes"/>
			<point x="55" y="173"/>
			<point x="319" y="229"/>
			<point x="319" y="127" type="curve" smooth="yes"/>
			<point x="319" y="98"/>
			<point x="285" y="79"/>
			<point x="234" y="79" type="curve" smooth="yes"/>
			<point x="127" y="79"/>
			<point x="112" y="146"/>
			<point x="80" y="146" type="curve" smooth="yes"/>
			<point x="57" y="146"/>
			<point x="40" y="127"/>
			<point x="40" y="99" type="curve" smooth="yes"/>
			<point x="40" y="41"/>
			<point x="121" y="-10"/>
		</contour>
	</outline>
</glyph>
<glyph name="t" format="2">
	<advance width="428"/>
	<unicode hex="0074"/>
	<outline>
		<contour>
			<point x="264" y="-10" type="curve" smooth="yes"/>
			<point x="312" y="-10"/>
			<point x="388" y="15"/>
			<point x="388" y="66" type="curve" smooth="yes"/>
			<point x="388" y="90"/>
			<point x="370" y="111"/>
			<point x="347" y="111" type="curve" smooth="yes"/>
			<point x="324" y="111"/>
			<point x="296" y="80"/>
			<point x="264" y="80" type="curve" smooth="yes"/>
			<point x="235" y="80"/>
			<point x="216" y="102"/>
			<point x="216" y="134" type="curve" smooth="yes"/>
			<point x="216" y="580" type="line" smooth="yes"/>
			<point x="216" y="616"/>
			<point x="194" y="640"/>
			<point x="161" y="640" type="curve" smooth="yes"/>
			<point x="128" y="640"/>
			<point x="106" y="616"/>
			<point x="106" y="580" type="curve" smooth="yes"/>
			<point x="106" y="169" type="line" smooth="yes"/>
			<point x="106" y="62"/>
			<point x="169" y="-10"/>
		</contour>
		<contour>
			<point x="84" y="410" type="curve" smooth="yes"/>
			<point x="328" y="410" type="line" smooth="yes"/>
			<point x="360" y="410"/>
			<point x="382" y="428"/>
			<point x="382" y="455" type="curve" smooth="yes"/>
			<point x="382" y="482"/>
			<point x="360" y="500"/>
			<point x="327" y="500" type="curve" smooth="yes"/>
			<point x="85" y="500" type="line" smooth="yes"/>
			<point x="52" y="500"/>
			<point x="30" y="482"/>
			<point x="30" y="455" type="curve" smooth="yes"/>
			<point x="30" y="428"/>
			<point x="52" y="410"/>
		</contour>
	</outline>
</glyph>
<glyph name="y" format="2">
	<advance width="522"/>
	<unicode hex="0079"/>
	<outline>
		<contour>
			<point x="183" y="-210" type="curve" smooth="yes"/>
			<point x="289" y="-210"/>
			<point x="331" y="-142"/>
			<point x="392" y="75" type="curve"/>
			<point x="485" y="430" type="line"/>
			<point x="499" y="484"/>
			<point x="473" y="510"/>
			<point x="444" y="510" type="curve" smooth="yes"/>
			<point x="421" y="510"/>
			<point x="396" y="495"/>
			<point x="387" y="459" type="curve"/>
			<point x="287" y="82" type="line"/>
			<point x="231" y="-112"/>
			<point x="213" y="-120"/>
			<point x="180" y="-120" type="curve" smooth="yes"/>
			<point x="150" y="-120"/>
			<point x="120" y="-105"/>
			<point x="120" y="-83" type="curve"/>
			<point x="100" y="-138" type="line"/>
			<point x="136" y="-138"/>
			<point x="160" y="-118"/>
			<point x="160" y="-87" type="curve" smooth="yes"/>
			<point x="160" y="-52"/>
			<point x="136" y="-29"/>
			<point x="100" y="-29" type="curve" smooth="yes"/>
			<point x="64" y="-29"/>
			<point x="40" y="-52"/>
			<point x="40" y="-87" type="curve" smooth="yes"/>
			<point x="40" y="-161"/>
			<point x="103" y="-210"/>
		</contour>
		<contour>
			<point x="259" y="-8" type="curve" smooth="yes"/>
			<point x="306" y="-8"/>
			<point x="337" y="34"/>
			<point x="337" y="96" type="curve"/>
			<point x="308" y="92" type="line"/>
			<point x="251" y="92" type="line"/>
			<point x="264" y="83" type="line"/>
			<point x="170" y="449" type="line" smooth="yes"/>
			<point x="159" y="491"/>
			<point x="131" y="510"/>
			<point x="105" y="510" type="curve" smooth="yes"/>
			<point x="72" y="510"/>
			<point x="42" y="480"/>
			<point x="55" y="431" type="curve" smooth="yes"/>
			<point x="143" y="99" type="line" smooth="yes"/>
			<point x="160" y="35"/>
			<point x="210" y="-8"/>
		</contour>
	</outline>
</glyph>
<glyph name="z" format="2">
	<advance width="487"/>
	<unicode hex="007A"/>
	<outline>
		<contour>
			<point x="115" y="0" type="curve" smooth="yes"/>
			<point x="387" y="0" type="line" smooth="yes"/>
			<point x="423" y="0"/>
			<point x="447" y="20"/>
			<point x="447" y="50" type="curve" smooth="yes"/>
			<point x="447" y="80"/>
			<point x="423" y="100"/>
			<point x="387" y="100" type="curve" smooth="yes"/>
			<point x="154" y="100" type="line"/>
			<point x="202" y="85" type="line"/>
			<point x="192" y="126" type="line"/>
			<point x="195" y="100" type="line"/>
			<point x="417" y="413" type="line" smooth="yes"/>
			<point x="454" y="465"/>
			<point x="433" y="500"/>
			<point x="368" y="500" type="curve" smooth="yes"/>
			<point x="117" y="500" type="line" smooth="yes"/>
			<point x="81" y="500"/>
			<point x="57" y="480"/>
			<point x="57" y="450" type="curve" smooth="yes"/>
			<point x="57" y="420"/>
			<point x="81" y="400"/>
			<point x="117" y="400" type="curve" smooth="yes"/>
			<point x="304" y="400" type="line"/>
			<point x="265" y="415" type="line"/>
			<point x="296" y="356" type="line"/>
			<point x="282" y="405" type="line"/>
			<point x="68" y="112" type="line" smooth="yes"/>
			<point x="15" y="40"/>
			<point x="38" y="0"/>
		</contour>
	</outline>
</glyph>
<glyph name="acute" format="2">
	<advance width="258"/>
	<unicode hex="00B4"/>
	<guideline x="877" y="261" angle="229.5739"/>
	<guideline x="113" y="498" angle="270"/>
	<anchor x="109" y="500" name="_top"/>
	<outline>
		<contour>
			<point x="100" y="572" type="curve" smooth="yes"/>
			<point x="211" y="684" type="line" smooth="yes"/>
			<point x="271" y="745"/>
			<point x="157" y="832"/>
			<point x="105" y="736" type="curve" smooth="yes"/>
			<point x="39" y="615" type="line" smooth="yes"/>
			<point x="10" y="563"/>
			<point x="67" y="538"/>
		</contour>
	</outline>
</glyph>
<glyph name="idieresis" format="2">
	<advance width="232"/>
	<unicode hex="00EF"/>
	<anchor x="116" y="500" name="_top"/>
	<outline>
		<contour>
			<point x="202" y="573" type="curve" smooth="yes"/>
			<point x="243" y="573"/>
			<point x="270" y="601"/>
			<point x="270" y="643" type="curve" smooth="yes"/>
			<point x="270" y="683"/>
			<point x="243" y="709"/>
			<point x="202" y="709" type="curve" smooth="yes"/>
			<point x="162" y="709"/>
			<point x="135" y="682"/>
			<point x="135" y="642" type="curve" smooth="yes"/>
			<point x="135" y="601"/>
			<point x="162" y="573"/>
		</contour>
		<contour>
			<point x="29" y="573" type="curve" smooth="yes"/>
			<point x="70" y="573"/>
			<point x="97" y="601"/>
			<point x="97" y="643" type="curve" smooth="yes"/>
			<point x="97" y="683"/>
			<point x="70" y="709"/>
			<point x="29" y="709" type="curve" smooth="yes"/>
			<point x="-11" y="709"/>
			<point x="-38" y="682"/>
			<point x="-38" y="642" type="curve" smooth="yes"/>
			<point x="-38" y="601"/>
			<point x="-11" y="573"/>
		</contour>
		<component base="dotlessi"/>
	</outline>
</glyph>
<glyph name="tilde" format="2">
	<advance width="600"/>
	<unicode hex="02DC"/>
	<anchor x="263" y="500" name="_top"/>
	<outline>
		<contour>
			<point x="132" y="564" type="curve" smooth="yes"/>
			<point x="152" y="564"/>
			<point x="172" y="579"/>
			<point x="172" y="609" type="curve" smooth="yes"/>
			<point x="172" y="619"/>
			<point x="178" y="623"/>
			<point x="187" y="623" type="curve" smooth="yes"/>
			<point x="221" y="623"/>
			<point x="303" y="576"/>
			<point x="364" y="576" type="curve" smooth="yes"/>
			<point x="405" y="576"/>
			<point x="436" y="598"/>
			<point x="436" y="668" type="curve" smooth="yes"/>
			<point x="436" y="699"/>
			<point x="415" y="714"/>
			<point x="395" y="714" type="curve" smooth="yes"/>
			<point x="375" y="714"/>
			<point x="356" y="700"/>
			<point x="356" y="672" type="curve" smooth="yes"/>
			<point x="356" y="662"/>
			<point x="351" y="658"/>
			<point x="341" y="658" type="curve" smooth="yes"/>
			<point x="308" y="658"/>
			<point x="226" y="707"/>
			<point x="165" y="707" type="curve" smooth="yes"/>
			<point x="124" y="707"/>
			<point x="92" y="685"/>
			<point x="92" y="609" type="curve" smooth="yes"/>
			<point x="92" y="579"/>
			<point x="112" y="564"/>
		</contour>
	</outline>
</glyph>
<glyph name="bullet" format="2">
	<advance width="483"/>
	<unicode hex="2022"/>
	<outline>
		<contour>
			<point x="242" y="209" type="curve" smooth="yes"/>
			<point x="319" y="209"/>
			<point x="383" y="271"/>
			<point x="383" y="349" type="curve" smooth="yes"/>
			<point x="383" y="351" type="line" smooth="yes"/>
			<point x="383" y="429"/>
			<point x="318" y="492"/>
			<point x="242" y="492" type="curve" smooth="yes"/>
			<point x="165" y="492"/>
			<point x="100" y="429"/>
			<point x="100" y="351" type="curve" smooth="yes"/>
			<point x="100" y="349" type="line" smooth="yes"/>
			<point x="100" y="271"/>
			<point x="164" y="209"/>
		</contour>
	</outline>
</glyph>
<glyph name="g.salt" format="2">
	<advance width="520"/>
	<outline>
		<contour>
			<point x="254" y="-210" type="curve" smooth="yes"/>
			<point x="390" y="-210"/>
			<point x="465" y="-129"/>
			<point x="465" y="-8" type="curve" smooth="yes"/>
			<point x="465" y="444" type="line"/>
			<point x="412" y="484"/>
			<point x="344" y="510"/>
			<point x="285" y="510" type="curve" smooth="yes"/>
			<point x="143" y="510"/>
			<point x="54" y="403"/>
			<point x="54" y="243" type="curve" smooth="yes"/>
			<point x="54" y="91"/>
			<point x="122" y="-10"/>
			<point x="232" y="-10" type="curve" smooth="yes"/>
			<point x="289" y="-10"/>
			<point x="330" y="18"/>
			<point x="353" y="64" type="curve"/>
			<point x="355" y="64" type="line"/>
			<point x="355" y="-8" type="line" smooth="yes"/>
			<point x="355" y="-82"/>
			<point x="316" y="-120"/>
			<point x="255" y="-120" type="curve" smooth="yes"/>
			<point x="231" y="-120"/>
			<point x="200" y="-117"/>
			<point x="171" y="-107" type="curve"/>
			<point x="174" y="-101"/>
			<point x="175" y="-94"/>
			<point x="175" y="-87" type="curve" smooth="yes"/>
			<point x="175" y="-52"/>
			<point x="151" y="-29"/>
			<point x="115" y="-29" type="curve" smooth="yes"/>
			<point x="77" y="-29"/>
			<point x="55" y="-63"/>
			<point x="55" y="-98" type="curve" smooth="yes"/>
			<point x="55" y="-172"/>
			<point x="144" y="-210"/>
		</contour>
		<contour>
			<point x="266" y="80" type="curve" smooth="yes"/>
			<point x="204" y="80"/>
			<point x="169" y="145"/>
			<point x="169" y="245" type="curve" smooth="yes"/>
			<point x="169" y="348"/>
			<point x="221" y="420"/>
			<point x="283" y="420" type="curve" smooth="yes"/>
			<point x="311" y="420"/>
			<point x="336" y="411"/>
			<point x="355" y="398" type="curve"/>
			<point x="355" y="198" type="line" smooth="yes"/>
			<point x="355" y="116"/>
			<point x="323" y="80"/>
		</contour>
	</outline>
</glyph>
<glyph name="zero.salt" format="2">
	<advance width="610"/>
	<outline>
		<contour>
			<point x="305" y="-10" type="curve" smooth="yes"/>
			<point x="449" y="-10"/>
			<point x="545" y="134"/>
			<point x="545" y="351" type="curve" smooth="yes"/>
			<point x="545" y="566"/>
			<point x="449" y="710"/>
			<point x="305" y="710" type="curve" smooth="yes"/>
			<point x="161" y="710"/>
			<point x="65" y="566"/>
			<point x="65" y="351" type="curve" smooth="yes"/>
			<point x="65" y="134"/>
			<point x="161" y="-10"/>
		</contour>
		<contour>
			<point x="305" y="90" type="curve" smooth="yes"/>
			<point x="233" y="90"/>
			<point x="185" y="194"/>
			<point x="185" y="351" type="curve" smooth="yes"/>
			<point x="185" y="506"/>
			<point x="233" y="610"/>
			<point x="305" y="610" type="curve" smooth="yes"/>
			<point x="377" y="610"/>
			<point x="425" y="506"/>
			<point x="425" y="351" type="curve" smooth="yes"/>
			<point x="425" y="194"/>
			<point x="377" y="90"/>
		</contour>
		<contour>
			<point x="305" y="275" type="curve" smooth="yes"/>
			<point x="341" y="275"/>
			<point x="365" y="305"/>
			<point x="365" y="350" type="curve" smooth="yes"/>
			<point x="365" y="395"/>
			<point x="341" y="425"/>
			<point x="305" y="425" type="curve" smooth="yes"/>
			<point x="269" y="425"/>
			<point x="245" y="395"/>
			<point x="245" y="350" type="curve" smooth="yes"/>
			<point x="245" y="305"/>
			<point x="269" y="275"/>
		</contour>
	</outline>
</glyph>
